<svg viewBox="0 0 100 100" xmlns="http://www.w3.org/2000/svg" xml:space="preserve" style="fill-rule:evenodd;clip-rule:evenodd;stroke-linejoin:round;stroke-miterlimit:2"><path d="M43.653 99.6c.838-.283 1.528-1.114 2.071-1.735.25-.287 3.44-3.887 4.702-6.132 1.451-2.578 3.999-9.336 3.999-9.336s.24 1.89.31 2.84c.117 1.597.134 3.199.253 4.796l-.032.012c.397 3.121.129 5.702-1.07 9.806a50.513 50.513 0 0 1-10.233-.251Zm22.544-2.347c.89-2.874 2.864-5.738 4.999-7.807l.61-.61 1.119.645c1.841 1.059 2.944 1.535 4.883 2.068a49.781 49.781 0 0 1-11.536 5.738l-.096.034.021-.068Zm-31.764-4.464c1.039.719 5.262-.219 9.113-6.963 4.453-7.798 4.483-12.366 4.483-12.366s-3.566 8.444-9.14 13.199c-1.622 1.383-4.267 5.005-4.456 6.13Zm-16.139-4.138C7.127 79.477 0 65.564 0 50 0 22.404 22.404 0 50 0s50 22.404 50 50c0 13.718-5.536 26.153-14.494 35.19l-.067-.019a17.611 17.611 0 0 1-2.008-.689c-1.538-.633-3.788-1.889-3.788-2.114 0-.08.136-.261.293-.42.104-.095 1.796-1.722 2.797-3.301.6-.946 3.755-5.108 1.546-9.605-2.494-5.078-7.237-8.613-12.387-10.565-5.299-2.008-7.792-.951-10.111-6.54-2.382-5.74 1.316-10.126 1.85-15.749.219-2.298-.174-4.706-1.048-6.918 1.3-1.816 1.657-3.907 1.974-6.062.09-.611.679-2.48-.442-2.749l-.348-.089c-2.592-.625-5.489.078-8.033.92-1.687-.943-3.488-1.395-5.606-1.417-2.013-.021-3.894.499-5.576 1.406-2.536-.837-5.419-1.532-7.999-.909l-.348.089c-1.121.269-.532 2.138-.442 2.749.313 2.128.665 4.195 1.926 5.996-.762 1.845-1.199 3.802-1.245 5.709-.11 4.627 3.269 8.853 2.781 13.566-.772 7.455-3.9 13.546-9.875 17.855-.927.669-4.69 2.148-6.976 1.464-8.201-2.451-2.85-11.246 1.226-15.176 1.514-1.459 2.525-3.391 3.455-5.277 1.288-2.611 2.33-5.821.922-8.678-2.067-4.196-7.818-4.406-8.618.724l-.079.498.656-.769c2.185-2.581 4.825-3.26 5.901.34.805 2.693-.869 6.28-2.148 8.252-5.589 8.616-15.345 10.601-8.43 22.726 3.08 5.399 10.876 5.883 16.953 2.712a17.508 17.508 0 0 0 3.509-2.433c1.202-1.069 2.174-2.373 3.245-3.574.291-.326.955-1.427.837-1.007-.969 3.458-.665 5.587-3.025 8.797-2.596 3.53-5.651 5.519-6.987 7.578-1.522 2.348-2.513 8.576-3.237 8.024-2.939-2.241-8.213-1.887-8.26-1.884Zm45.89-2.178-1.469 2.613c-.123-2.765-.126-9.843-.08-10.759l.079-1.674.487 1.368c.301.866.651 1.718 1.046 2.546.39.818.849 1.602 1.306 2.385.169.289.633 1.097.633 1.097s-.49.616-.645.792a30.63 30.63 0 0 0-1.357 1.632Zm3.981-19.432s.878.081 1.311.16c1.62.297 3.189.662 4.292 1.981.894 1.068 1.87 2.625 1.566 4.09-.144.696-.4 1.365-.637 2.036-.073.205-1.002 1.567-1.002 1.567s-1.194-1.586-1.493-1.997c-1.82-2.499-4.037-7.837-4.037-7.837Z" style="fill:#646D76"/></svg>
