<svg viewBox="0 0 100 100" xmlns="http://www.w3.org/2000/svg" xml:space="preserve" style="fill-rule:evenodd;clip-rule:evenodd;stroke-linejoin:round;stroke-miterlimit:2"><path d="M43.653 99.6c.838-.283 1.528-1.113 2.071-1.735.25-.286 3.44-3.887 4.702-6.131 1.451-2.578 3.999-9.337 3.999-9.337s.24 1.891.31 2.841c.117 1.596.134 3.199.253 4.795l-.032.012c.397 3.121.129 5.702-1.07 9.806a50.513 50.513 0 0 1-10.233-.251Zm22.523-2.279c.88-2.897 2.869-5.789 5.02-7.875l.61-.61 1.119.645c1.841 1.059 2.944 1.535 4.883 2.068a49.787 49.787 0 0 1-12.734 6.135l-.212.067-.142.043-.018.006-.015.004c-.36.111-.723.218-1.087.321l-.016.004-.027.008-.172.048-.176.048-.024.007-.098.027-.245.066-.011.002c-.241.064-.483.127-.725.187l-.029.007-.042.01-.292.072-.045.011-.03.007-.08.019-.26.061-.013.003c-.123.029-.246.057-.37.084l-.01.002-.034.008-.221.049-.089.019-.039.008-.05.011-.126.027-.154.032-.054.011-.03.007c-.24.049-.481.097-.722.143l-.019.004-.052.009-.192.037-.097.017-.046.009-.052.009-.112.02-.167.03-.058.01-.027.005a44.04 44.04 0 0 1-.727.12l-.025.004-.057.009-.175.027-.109.017-.051.008-.048.007-.102.015-.188.027-.054.008-.021.003c-.245.034-.491.067-.738.098l-.028.004-.054.006-.165.021-.127.015-.05.006-.04.004-.097.012-.221.024-.038.005-.011.001c-.252.027-.504.053-.756.076l-.028.003-.044.004-.162.015-.151.013-.041.003-.03.003-.094.008-.276.022.37-.03.071-.006.313-.028.072-.007.37-.036.386-.04.049-.006.318-.036.09-.01.292-.036.082-.01.366-.047.372-.051.075-.011.29-.042.099-.015.284-.044.082-.013.365-.059.362-.061.085-.015.279-.05.098-.018.289-.054.071-.013.367-.071.355-.072.084-.018.28-.059.089-.019.31-.068.044-.01.37-.084.013-.003.34-.08.075-.018.292-.072.071-.017.35-.089.375-.098.011-.002.343-.093.057-.016.315-.087.043-.012.358-.103.373-.11.356-.108.033-.01.35-.109.004-.001.368-.118.367-.121.367-.124Zm-47.882-8.67C7.127 79.477 0 65.564 0 50 0 22.404 22.404 0 50 0s50 22.404 50 50c0 13.828-5.626 26.353-14.712 35.408l-.152.152-.067.066-.147.144-.075.072-.141.137-.216.208-.089.084-.129.122-.097.091-.122.114-.106.098-.114.106-.116.106-.105.096-.126.114-.097.088-.138.122-.086.077-.151.133-.074.066-.169.148a50.664 50.664 0 0 1-2.919 2.351l-.185.138-.243.178-.07.051-.173.125-.079.057-.166.118-.088.063-.157.111-.099.069-.148.103-.11.076-.138.095-.123.084-.126.085-.139.093.255-.172.01-.006.245-.168.016-.011.238-.166.02-.013.235-.165.021-.015.233-.166.021-.015.252-.182.237-.174.013-.009.248-.184a50.241 50.241 0 0 0 2.919-2.351l.232-.204.011-.01.221-.195.016-.015.214-.191.021-.019.231-.21.206-.189.024-.023.204-.189.024-.023.202-.191.024-.022.202-.193.022-.021.204-.197.018-.018.207-.202.015-.014.211-.209.008-.009.218-.218a17.428 17.428 0 0 1-2.075-.708c-1.538-.633-3.788-1.889-3.788-2.114 0-.08.136-.261.293-.42.104-.095 1.796-1.722 2.797-3.301.6-.946 3.755-5.108 1.546-9.605-2.494-5.078-7.237-8.613-12.387-10.565-5.299-2.008-7.792-.951-10.111-6.54-2.382-5.74 1.316-10.126 1.85-15.749.401-4.212-1.254-8.791-4.151-11.86-2.871-3.041-5.62-4.416-9.352-4.455-7.741-.08-13.512 7.833-13.684 15.04-.11 4.627 3.269 8.853 2.781 13.566-.772 7.455-3.9 13.546-9.875 17.855-.927.669-4.69 2.148-6.976 1.464-8.201-2.451-2.85-11.246 1.226-15.176 1.514-1.459 2.525-3.391 3.455-5.277 1.288-2.611 2.33-5.821.922-8.678-2.067-4.196-7.818-4.406-8.618.724l-.079.498.656-.769c2.185-2.581 4.825-3.26 5.901.34.805 2.693-.869 6.28-2.148 8.252-5.589 8.616-15.345 10.601-8.43 22.726 3.08 5.399 10.876 5.883 16.953 2.712a17.508 17.508 0 0 0 3.509-2.433c1.202-1.069 2.174-2.373 3.245-3.574.291-.326.955-1.427.837-1.007-.969 3.459-.665 5.587-3.025 8.798-2.596 3.529-5.651 5.519-6.987 7.578-1.522 2.348-2.513 8.576-3.237 8.024-2.952-2.251-8.26-1.885-8.26-1.885l.066.054.306.249.302.241.087.069.246.193.064.05.291.224.103.078.215.163.1.075.283.211.114.084.198.144.123.089.279.2.121.086.189.133.137.096.225.155.061.042.114.077.188.128.148.099.187.124.113.075.091.06.198.129.154.1.173.11.143.091.036.023.242.152.158.098.167.103.156.095.278.168.157.094.169.099.161.095.247.143.036.022.151.086.175.099.163.092.2.111.101.056.128.07.188.103.162.088.19.101.13.069.088.046.218.114.161.083.189.097.15.076.298.149.155.077.195.095.151.074.305.145.146.069.205.096.151.07.312.143.131.058.221.099.149.066.261.114.072.031.09.038.252.107.145.061.246.102.109.045.012.005.32.129.138.055.244.097.12.046.337.13.128.048.251.093.124.046.343.125.113.04.264.094.125.043.352.121.086.029.29.096.123.041.335.108.064.02.339.106.118.037.308.093.073.022.369.108.11.032.301.086.09.025.374.102.097.026.306.081.098.026.38.096.077.019.322.079.101.025.388.091.042.009.354.08.101.023.389.084.005.001.398.082.097.02.356.07.046.009.401.075.087.016.346.062.068.012.405.068.072.012.351.056.079.012.41.062.047.007.37.052.083.011.418.055-.418-.055-.036-.005-.047-.006-.141-.019-.229-.033-.035-.005-.012-.002-.41-.062-.029-.004-.05-.008-.166-.026-.185-.03-.049-.008-.023-.004-.405-.068-.02-.004-.048-.008-.196-.035-.15-.027-.053-.009-.034-.007a28.219 28.219 0 0 1-.401-.075l-.011-.002-.035-.007-.236-.046-.12-.024-.053-.011-.044-.009-.398-.082-.299-.064-.095-.021-.048-.011-.053-.012-.107-.023-.247-.057-.033-.007-.009-.002-.388-.091-.042-.01-.059-.015-.128-.031-.194-.048-.056-.013-.021-.006a23.446 23.446 0 0 1-.38-.096l-.034-.009-.064-.017-.151-.039-.155-.042-.064-.017-.033-.009-.374-.102-.026-.007-.064-.018-.177-.05-.124-.036-.066-.019-.044-.013a25.671 25.671 0 0 1-.369-.108l-.016-.005-.057-.017-.21-.063-.098-.03-.063-.019-.055-.018-.078-.023-.261-.083-.064-.02-.26-.084-.075-.024-.123-.041-.094-.03-.196-.066-.067-.023-.019-.006c-.117-.04-.233-.079-.352-.121l-.05-.017-.075-.026-.11-.039-.154-.055-.08-.028-.033-.012-.343-.125-.042-.015-.082-.031-.129-.047-.122-.046-.083-.031-.045-.017-.337-.13-.032-.012-.088-.034-.148-.058-.096-.039-.081-.031-.057-.024-.049-.019-.271-.11-.033-.013-.088-.037-.173-.071-.073-.031-.075-.031-.07-.03-.062-.026-.19-.081-.085-.036-.077-.033-.207-.09-.054-.024-.067-.029-.082-.037-.076-.033-.145-.066-.1-.044-.031-.014-.312-.143-.059-.027-.092-.043-.09-.041-.115-.055-.102-.048-.044-.021a28.53 28.53 0 0 1-.305-.145l-.151-.074-.104-.05-.091-.045-.098-.048-.057-.029-.298-.149-.039-.019-.111-.057-.118-.06-.071-.037-.092-.047-.069-.036-.037-.019-.181-.095-.102-.053-.116-.062-.137-.073-.053-.028-.082-.044-.08-.044-.051-.027-.137-.076-.117-.064-.112-.062-.163-.09-.037-.021-.072-.04-.154-.088-.112-.063-.115-.066-.072-.042-.225-.13-.022-.013-.061-.035-.1-.06-.077-.045-.092-.054-.108-.064-.049-.03a15.779 15.779 0 0 1-.278-.168l-.048-.029-.108-.066-.092-.056-.075-.047-.098-.06-.06-.038-.023-.014-.219-.138-.069-.043-.11-.071-.111-.071-.062-.039-.086-.055-.068-.045-.037-.024-.161-.105-.1-.065-.104-.07-.138-.091-.049-.033-.073-.049-.075-.05-.053-.036-.135-.092-.099-.067-.076-.052-.187-.129-.038-.026-.059-.041-.078-.055-.072-.05-.117-.083-.09-.064-.031-.022c-.094-.066-.186-.133-.279-.2l-.045-.032-.078-.057-.093-.067-.105-.077-.077-.056-.037-.028c-.095-.07-.19-.14-.283-.211l-.03-.022-.07-.053-.122-.091-.093-.072-.063-.047-.04-.031-.291-.224-.015-.012-.049-.038-.163-.127-.083-.066-.048-.038-.039-.031-.302-.241-.231-.187-.075-.062-.032-.026-.034-.028Zm16.139 4.139c1.039.719 5.262-.219 9.113-6.964 4.453-7.798 4.483-12.365 4.483-12.365s-3.566 8.443-9.14 13.198c-1.622 1.384-4.267 5.005-4.456 6.131Zm29.751-6.317-1.469 2.613c-.123-2.765-.126-9.843-.08-10.759l.079-1.674.487 1.368c.301.867.651 1.718 1.046 2.547.39.817.849 1.601 1.306 2.384.169.29.633 1.097.633 1.097s-.49.616-.645.792a30.63 30.63 0 0 0-1.357 1.632Zm3.981-19.432s.878.082 1.311.161c1.62.296 3.189.661 4.292 1.98.894 1.068 1.87 2.625 1.566 4.09-.144.696-.4 1.366-.637 2.036-.073.205-1.002 1.567-1.002 1.567s-1.194-1.586-1.493-1.997c-1.82-2.499-4.037-7.837-4.037-7.837Z" style="fill:#fff"/></svg>
